<?xml version="1.0" encoding="UTF-8"?> <!-- Generator: Adobe Illustrator 24.1.2, SVG Export Plug-In . SVG Version: 6.00 Build 0) --> <svg xmlns="http://www.w3.org/2000/svg" xmlns:xlink="http://www.w3.org/1999/xlink" version="1.1" id="Layer_1" x="0px" y="0px" viewBox="0 0 476.4 109.9" style="enable-background:new 0 0 476.4 109.9;" xml:space="preserve"> <style type="text/css"> .st0{fill-rule:evenodd;clip-rule:evenodd;fill:#002147;} .st1{fill-rule:evenodd;clip-rule:evenodd;fill:#F4812B;} .st2{fill-rule:evenodd;clip-rule:evenodd;fill:#D7E0E8;} .st3{fill-rule:evenodd;clip-rule:evenodd;fill:#4BC8B6;} .st4{fill-rule:evenodd;clip-rule:evenodd;fill:#FFFFFF;} </style> <g> <g> <path class="st0" d="M83.7,54.9L46.1,0.2C19.9,4.7,0,27.5,0,54.9s19.9,50.3,46.1,54.8L83.7,54.9z"></path> <path class="st0" d="M64.2,0l37.7,54.9l0,0l0,0l-37.7,54.9c26.6-4.1,47-27.1,47-54.9C111.2,27.1,90.8,4.1,64.2,0z"></path> </g> <g> <g> <path d="M131.4,83.4c0-4.7,3.6-8.5,8.3-8.5c1.9,0,3.6,0.7,5,1.7l-0.7,0.8c-1.2-0.9-2.7-1.5-4.3-1.5c-4.1,0-7.3,3.4-7.3,7.5 c0,4.1,3.2,7.4,7.3,7.4c3.4,0,6-1.9,6.5-5.7l0-0.3h-5.1v-1h6.3c-0.1,5.4-3.3,8.1-7.7,8.1C135.1,91.9,131.4,88.1,131.4,83.4z"></path> <path d="M158.5,83.4c0-4.7,3.6-8.5,8.3-8.5c4.7,0,8.4,3.8,8.4,8.5c0,4.7-3.6,8.5-8.4,8.5C162.2,91.9,158.5,88.1,158.5,83.4z M174.1,83.4c0-4.1-3.2-7.5-7.3-7.5c-4.1,0-7.2,3.4-7.2,7.5c0,4.1,3.2,7.4,7.2,7.4C170.9,90.8,174.1,87.5,174.1,83.4z"></path> <path d="M193.7,84.9l4.7,6.7h-1.3l-4.7-6.7h-3.3v6.7H188V75.1h6.1c3.3,0,4.6,2.4,4.6,4.9s-1.3,4.9-4.7,4.9L193.7,84.9L193.7,84.9 z M189.1,83.9h4.8c2.7,0,3.7-1.8,3.7-3.9c0-2-1.1-3.9-3.5-3.9h-5V83.9L189.1,83.9z"></path> <path d="M211.6,75.1h6.2c4.6,0,7.3,3.6,7.3,8.3c0,4.7-2.7,8.2-7.3,8.2h-6.2V75.1z M217.8,90.6c4,0,6.2-3.1,6.2-7.2 c0-4.1-2.2-7.3-6.2-7.3h-5.1v14.5C212.7,90.6,217.8,90.6,217.8,90.6z"></path> <path d="M238,75.1h1.1v16.5H238V75.1z"></path> <path d="M248.4,97.1l0.1-1c0.4,0.1,0.8,0.1,1.1,0.1c2.7,0,3.7-1.8,3.7-4.1v-17h1.1v17c0,2.8-1.3,5.2-4.8,5.2 C249.2,97.2,248.8,97.2,248.4,97.1z"></path> <path d="M280,75.1v16.5h-1.2l-9.2-14.8v14.8h-1.1V75.1h1.2l9.2,14.8V75.1H280z"></path> <path d="M303.5,90.6v1H294V75.1h9.2v1h-8.1V83h7.1V84h-7.1v6.6L303.5,90.6L303.5,90.6z"></path> <path d="M327.8,75.1v16.5h-1.2l-9.2-14.8v14.8h-1.1V75.1h1.2l9.2,14.8V75.1H327.8z"></path> <path d="M350.4,87.1h-8l-1.7,4.5h-1.1l6.3-16.5h1.1l6.3,16.5h-1.1L350.4,87.1z M350.1,86.1l-3.6-9.6l-3.7,9.6H350.1z"></path> <path d="M373.7,76.1h-5.5v15.5h-1.1V76.1h-5.5v-1h12V76.1z"></path> <path d="M395.1,90.6v1h-9.5V75.1h9.2v1h-8.1V83h7.1V84h-7.1v6.6L395.1,90.6L395.1,90.6z"></path> <path d="M407.9,75.1h1.1v15.5h7.3v1h-8.4L407.9,75.1L407.9,75.1z"></path> <path d="M428.3,75.1h1.1v16.5h-1.1V75.1z"></path> <path d="M452.9,90.6v1h-9.5V75.1h9.2v1h-8.1V83h7.1V84h-7.1v6.6L452.9,90.6L452.9,90.6z"></path> <path d="M471.4,84.9l4.7,6.7h-1.3l-4.7-6.7h-3.3v6.7h-1.1V75.1h6.1c3.3,0,4.6,2.4,4.6,4.9s-1.3,4.9-4.7,4.9L471.4,84.9 L471.4,84.9z M466.8,83.9h4.8c2.7,0,3.7-1.8,3.7-3.9c0-2-1.1-3.9-3.5-3.9h-5L466.8,83.9L466.8,83.9z"></path> </g> <g> <path d="M152.2,18.3l-10.9,36.6h-2.9l-11-36.6h2.5l9.9,33.3l9.9-33.3L152.2,18.3z"></path> <path d="M177.2,44.9h-17.8l-3.8,10H153l14-36.6h2.6l13.9,36.6h-2.5L177.2,44.9z M176.4,42.8l-8.1-21.3l-8.1,21.3H176.4z"></path> <path d="M215.3,18.3v36.6h-2.7l-20.4-32.7v32.7h-2.4V18.3h2.7l20.4,32.8V18.3H215.3z"></path> <path d="M240.9,18.3h13.7c10.3,0,16.2,8,16.2,18.4c0,10.4-5.9,18.2-16.2,18.2h-13.7V18.3z M254.6,52.6c8.9,0,13.8-6.9,13.8-15.9 c0-9.1-4.9-16.1-13.8-16.1h-11.3v32.1L254.6,52.6L254.6,52.6z"></path> <path d="M300.5,52.6v2.3h-21V18.3h20.3v2.3h-17.9v15.2h15.7v2.3h-15.7v14.5L300.5,52.6L300.5,52.6z"></path> <path d="M321.6,40.1L332,54.9h-2.9l-10.5-14.8h-7.3v14.8H309V18.3h13.5c7.4,0,10.2,5.4,10.2,11s-2.8,10.9-10.4,10.9H321.6z M311.4,37.9H322c6,0,8.3-4.1,8.3-8.6c0-4.5-2.3-8.7-7.8-8.7h-11.2L311.4,37.9L311.4,37.9z"></path> <path d="M355.2,18.3h4.8v32.2h15v4.5h-19.8V18.3z"></path> <path d="M403.4,50.5v4.5h-22.1V18.3h21.6v4.5H386v11.9h14.7v4.5H386v11.3C386,50.5,403.4,50.5,403.4,50.5z"></path> <path d="M411.2,18.3h4.8v32.2h15v4.5h-19.8L411.2,18.3L411.2,18.3z"></path> <path d="M437.2,18.3h4.8v36.6h-4.8V18.3z"></path> <path d="M474.4,50.5v4.5h-22.1V18.3h21.6v4.5H457v11.9h14.7v4.5H457v11.3C457,50.5,474.4,50.5,474.4,50.5z"></path> </g> </g> <g> <rect x="40.8" y="33.7" class="st1" width="19" height="19"></rect> <rect x="40.8" y="57.7" class="st2" width="19" height="19"></rect> <rect x="16.8" y="33.7" class="st3" width="19" height="19"></rect> <rect x="16.8" y="57.7" class="st4" width="19" height="19"></rect> </g> </g> </svg> 